<svg viewBox="816 259 260 260" xmlns="http://www.w3.org/2000/svg">
  <defs>
    <linearGradient id="bg" x1="0%" y1="0%" x2="100%" y2="100%">
      <stop offset="0%" stop-color="#3a3a3a" />
      <stop offset="100%" stop-color="#000000" />
    </linearGradient>
  </defs>
  <circle cx="946" cy="389" r="130" fill="url(#bg)" />
  <g transform="translate(905.984, 582.440) scale(0.07177734375, -0.07177734375)">
    <g transform="translate(0, 2048)">
      <path
        d="M1036 196Q1036 171 1034.5 153.5Q1033 136 1030.0 123.5Q1027 111 1022.0 102.0Q1017 93 1006.0 81.5Q995 70 963.5 52.0Q932 34 886.5 17.5Q841 1 782.5 -10.0Q724 -21 656 -21Q523 -21 416.0 20.0Q309 61 234.0 142.5Q159 224 119.0 346.0Q79 468 79 630Q79 795 123.0 923.0Q167 1051 246.0 1138.0Q325 1225 435.5 1270.0Q546 1315 679 1315Q733 1315 783.0 1306.0Q833 1297 875.5 1282.5Q918 1268 952.0 1249.0Q986 1230 999.5 1216.5Q1013 1203 1018.0 1194.0Q1023 1185 1026.0 1171.0Q1029 1157 1030.5 1138.0Q1032 1119 1032 1091Q1032 1061 1030.0 1040.0Q1028 1019 1023.0 1006.0Q1018 993 1011.0 987.0Q1004 981 995 981Q980 981 957.0 998.5Q934 1016 897.5 1037.5Q861 1059 810.5 1076.5Q760 1094 690 1094Q613 1094 552.5 1062.5Q492 1031 449.5 972.5Q407 914 385.0 831.0Q363 748 363 644Q363 530 386.5 446.5Q410 363 453.5 309.0Q497 255 558.5 228.5Q620 202 697 202Q767 202 818.0 218.5Q869 235 905.5 255.0Q942 275 965.5 291.0Q989 307 1002 307Q1012 307 1018.0 303.0Q1024 299 1028.0 287.0Q1032 275 1034.0 253.5Q1036 232 1036 196Z"
        fill="#FFFFFF"
      />
    </g>
  </g>
</svg>
